# xmcd
#
# Track frame offsets:
#	150
#	11851
#	24885
#	38199
#	49866
#	58543
#	69483
#	85899
#	101617
#	111963
#	122975
#	136715
#	147133
#	160029
#	172137
#
# Disc length: 2464 seconds
#
# Revision: 4
# Processed by: cddbd v1.5.2PL0 Copyright (c) Steve Scherf et al.
# Submitted via: EZCDAudioConverter 2.1.7.1
#
DISCID=c9099e0f
DTITLE=V/A - The Who Jukebox
DYEAR=2006
DGENRE=MOJO
TTITLE0=Martha and The Vandellas - Dancing In The Street
TTITLE1=Four Tops - Reach Out I'll Be There
TTITLE2=Marvin Gaye - Ain't That Peculiar
TTITLE3=Hank Williams - Take These Chains From My Heart
TTITLE4=Tim Hardin - Reason To Believe
TTITLE5=Antony and The Johnsons - For Today I Am A Boy
TTITLE6=The Band - Stage Fright
TTITLE7=Ian Dury - Sweet Gene Vincent
TTITLE8=Cannonball Adderley Sextet - Tengo Tango
TTITLE9=Jimmy Reed - Hush Hush
TTITLE10=Howlin' Wolf - Smokestack Lightning
TTITLE11=Etta James - Tell Mama
TTITLE12=John Lee Hooker - Devil's Jump
TTITLE13=Leadbelly - Ella Speed
TTITLE14=Stanley Brothers - Man Of Constant Sorrow
EXTD=
EXTT0=
EXTT1=
EXTT2=
EXTT3=
EXTT4=
EXTT5=
EXTT6=
EXTT7=
EXTT8=
EXTT9=
EXTT10=
EXTT11=
EXTT12=
EXTT13=
EXTT14=
PLAYORDER=
